<svg width="14" height="15" viewBox="0 0 14 15" fill="none" xmlns="http://www.w3.org/2000/svg">
<g id="Icon/won">
<path id="Vector" d="M6.899 6.72217L6.69678 7.49995H7.33067L7.12456 6.72217H6.899Z" fill="black"/>
<path id="Vector_2" d="M4.64312 7.49995H5.68923L5.89535 6.72217H4.43701L4.64312 7.49995Z" fill="black"/>
<path id="Vector_3" d="M5.1685 9.48339L5.4835 8.27783H4.84961L5.1685 9.48339Z" fill="black"/>
<path id="Vector_4" d="M8.33795 7.49995H9.38406L9.59017 6.72217H8.13184L8.33795 7.49995Z" fill="black"/>
<path id="Vector_5" d="M8.85895 9.48339L9.17784 8.27783H8.54395L8.85895 9.48339Z" fill="black"/>
<path id="Vector_6" d="M7.00006 1.27783C5.76942 1.27783 4.56641 1.64276 3.54318 2.32647C2.51994 3.01017 1.72242 3.98195 1.25147 5.11891C0.780528 6.25588 0.657307 7.50696 0.897393 8.71395C1.13748 9.92094 1.73009 11.0296 2.60028 11.8998C3.47048 12.77 4.57917 13.3626 5.78616 13.6027C6.99316 13.8428 8.24424 13.7196 9.3812 13.2486C10.5182 12.7777 11.4899 11.9802 12.1736 10.9569C12.8574 9.9337 13.2223 8.73069 13.2223 7.50005C13.2223 5.84982 12.5667 4.26717 11.3998 3.10028C10.2329 1.93339 8.65029 1.27783 7.00006 1.27783ZM11.2778 8.27783H10.1851L9.33339 11.5134C9.30637 11.6176 9.24549 11.7099 9.16033 11.7758C9.07516 11.8418 8.97052 11.8775 8.86284 11.8775C8.75515 11.8775 8.65051 11.8418 8.56534 11.7758C8.48018 11.7099 8.4193 11.6176 8.39228 11.5134L7.53672 8.27783H6.49061L5.63895 11.5134C5.61192 11.6176 5.55105 11.7099 5.46588 11.7758C5.38072 11.8418 5.27608 11.8775 5.16839 11.8775C5.0607 11.8775 4.95606 11.8418 4.8709 11.7758C4.78573 11.7099 4.72486 11.6176 4.69784 11.5134L3.84228 8.27783H2.72228C2.61914 8.27783 2.52022 8.23686 2.44729 8.16393C2.37436 8.091 2.33339 7.99208 2.33339 7.88894C2.33339 7.7858 2.37436 7.68689 2.44729 7.61396C2.52022 7.54103 2.61914 7.50005 2.72228 7.50005H3.63617L3.43006 6.72228H2.72228C2.61914 6.72228 2.52022 6.6813 2.44729 6.60837C2.37436 6.53544 2.33339 6.43653 2.33339 6.33339C2.33339 6.23025 2.37436 6.13133 2.44729 6.0584C2.52022 5.98547 2.61914 5.9445 2.72228 5.9445H3.22783L2.83895 4.51339C2.80594 4.38859 2.82386 4.25579 2.88877 4.14421C2.95368 4.03262 3.06026 3.95139 3.18506 3.91839C3.30986 3.88538 3.44265 3.90331 3.55424 3.96821C3.66582 4.03312 3.74705 4.1397 3.78006 4.2645L4.23117 5.9445H6.09784L6.54117 4.2645C6.56819 4.16026 6.62907 4.06794 6.71423 4.00204C6.7994 3.93613 6.90404 3.90038 7.01172 3.90038C7.11941 3.90038 7.22405 3.93613 7.30922 4.00204C7.39438 4.06794 7.45526 4.16026 7.48228 4.2645L7.92561 5.9445H9.79228L10.2356 4.2645C10.2686 4.1397 10.3498 4.03312 10.4614 3.96821C10.573 3.90331 10.7058 3.88538 10.8306 3.91839C10.9554 3.95139 11.062 4.03262 11.1269 4.14421C11.1918 4.25579 11.2097 4.38859 11.1767 4.51339L10.7878 5.9445H11.2778C11.381 5.9445 11.4799 5.98547 11.5528 6.0584C11.6258 6.13133 11.6667 6.23025 11.6667 6.33339C11.6667 6.43653 11.6258 6.53544 11.5528 6.60837C11.4799 6.6813 11.381 6.72228 11.2778 6.72228H10.5934L10.3873 7.50005H11.2778C11.381 7.50005 11.4799 7.54103 11.5528 7.61396C11.6258 7.68689 11.6667 7.7858 11.6667 7.88894C11.6667 7.99208 11.6258 8.091 11.5528 8.16393C11.4799 8.23686 11.381 8.27783 11.2778 8.27783Z" fill="black"/>
</g>
</svg>
