<svg width="14" height="15" viewBox="0 0 14 15" fill="none" xmlns="http://www.w3.org/2000/svg">
<g id="Icon/people">
<path id="Vector" d="M2.04179 5.16665C2.0419 4.6136 2.18498 4.06997 2.45713 3.58852C2.72928 3.10706 3.12127 2.70414 3.59505 2.41884C4.06883 2.13354 4.60832 1.97555 5.16115 1.96022C5.71399 1.94488 6.26141 2.07271 6.75027 2.33131C7.23914 2.58991 7.65286 2.97048 7.95129 3.43611C8.24971 3.90173 8.42271 4.43659 8.45348 4.98879C8.48426 5.54098 8.37177 6.09175 8.12693 6.58765C7.8821 7.08356 7.51323 7.50775 7.05612 7.81907C8.0405 8.18011 8.8943 8.82748 9.50766 9.67786C10.121 10.5282 10.4659 11.5427 10.4978 12.5907C10.4964 12.7037 10.4515 12.8118 10.3723 12.8924C10.2931 12.9731 10.1858 13.02 10.0729 13.0234C9.95992 13.0267 9.85003 12.9864 9.76616 12.9106C9.68228 12.8349 9.63092 12.7297 9.62279 12.617C9.58805 11.4803 9.1121 10.4019 8.2958 9.61014C7.47951 8.81841 6.38701 8.37563 5.24983 8.37563C4.11265 8.37563 3.02015 8.81841 2.20385 9.61014C1.38756 10.4019 0.911608 11.4803 0.876871 12.617C0.87103 12.7312 0.820682 12.8386 0.736614 12.9162C0.652545 12.9938 0.541441 13.0353 0.427105 13.032C0.312769 13.0286 0.204294 12.9806 0.12492 12.8982C0.0455451 12.8159 0.00158396 12.7057 0.00245408 12.5913C0.0342757 11.5432 0.379058 10.5286 0.992421 9.6781C1.60578 8.82761 2.45965 8.18015 3.44412 7.81907C3.01177 7.52485 2.65796 7.12934 2.41353 6.66702C2.1691 6.2047 2.04148 5.68961 2.04179 5.16665ZM5.25012 2.83332C4.63128 2.83332 4.03779 3.07915 3.6002 3.51673C3.16262 3.95432 2.91679 4.54781 2.91679 5.16665C2.91679 5.78549 3.16262 6.37898 3.6002 6.81656C4.03779 7.25415 4.63128 7.49998 5.25012 7.49998C5.86896 7.49998 6.46245 7.25415 6.90004 6.81656C7.33762 6.37898 7.58345 5.78549 7.58345 5.16665C7.58345 4.54781 7.33762 3.95432 6.90004 3.51673C6.46245 3.07915 5.86896 2.83332 5.25012 2.83332ZM10.086 5.16665C9.99962 5.16665 9.91562 5.17248 9.83279 5.18415C9.77495 5.1945 9.71563 5.19311 9.65835 5.18003C9.60107 5.16696 9.54701 5.14249 9.49939 5.10807C9.45177 5.07366 9.41158 5.03 9.3812 4.97971C9.35082 4.92942 9.33088 4.87353 9.32257 4.81537C9.31426 4.75721 9.31775 4.69797 9.33284 4.64118C9.34792 4.5844 9.37428 4.53124 9.41036 4.48486C9.44644 4.43849 9.49148 4.39986 9.54281 4.37127C9.59414 4.34269 9.6507 4.32473 9.70912 4.31848C10.2893 4.2346 10.8809 4.34601 11.3908 4.63519C11.9007 4.92436 12.3 5.37488 12.5258 5.91584C12.7516 6.4568 12.7912 7.05749 12.6382 7.62338C12.4852 8.18927 12.1484 8.68823 11.6808 9.04173C12.3682 9.34952 12.9518 9.84965 13.3613 10.4818C13.7708 11.1139 13.9886 11.851 13.9885 12.6041C13.9885 12.7202 13.9424 12.8315 13.8603 12.9135C13.7783 12.9956 13.667 13.0416 13.551 13.0416C13.4349 13.0416 13.3236 12.9956 13.2416 12.9135C13.1595 12.8315 13.1135 12.7202 13.1135 12.6041C13.1134 11.9532 12.9037 11.3197 12.5153 10.7973C12.127 10.2749 11.5807 9.89146 10.9575 9.70382L10.646 9.61048V8.63282L10.8851 8.5109C11.2396 8.33132 11.5233 8.0375 11.6903 7.67687C11.8573 7.31625 11.8979 6.90987 11.8055 6.52334C11.7132 6.13681 11.4932 5.79269 11.1812 5.54653C10.8692 5.30037 10.4834 5.16654 10.086 5.16665Z" fill="#B1B4C3"/>
</g>
</svg>
