<svg width="14" height="15" viewBox="0 0 14 15" fill="none" xmlns="http://www.w3.org/2000/svg">
<g id="Icon/calender">
<path id="Vector" d="M1.1665 11.5834C1.1665 12.5751 1.92484 13.3334 2.9165 13.3334H11.0832C12.0748 13.3334 12.8332 12.5751 12.8332 11.5834V6.91675H1.1665V11.5834ZM11.0832 2.83341H9.9165V2.25008C9.9165 1.90008 9.68317 1.66675 9.33317 1.66675C8.98317 1.66675 8.74984 1.90008 8.74984 2.25008V2.83341H5.24984V2.25008C5.24984 1.90008 5.0165 1.66675 4.6665 1.66675C4.3165 1.66675 4.08317 1.90008 4.08317 2.25008V2.83341H2.9165C1.92484 2.83341 1.1665 3.59175 1.1665 4.58341V5.75008H12.8332V4.58341C12.8332 3.59175 12.0748 2.83341 11.0832 2.83341Z" fill="black"/>
</g>
</svg>
