<svg width="20" height="20" viewBox="0 0 20 20" fill="none" xmlns="http://www.w3.org/2000/svg">
<g id="Icon/smile">
<g id="Group">
<path id="Vector" fill-rule="evenodd" clip-rule="evenodd" d="M9.99984 2.29175C7.95546 2.29175 5.99482 3.10387 4.54922 4.54947C3.10363 5.99506 2.2915 7.9557 2.2915 10.0001C2.2915 12.0445 3.10363 14.0051 4.54922 15.4507C5.99482 16.8963 7.95546 17.7084 9.99984 17.7084C12.0442 17.7084 14.0049 16.8963 15.4505 15.4507C16.896 14.0051 17.7082 12.0445 17.7082 10.0001C17.7082 7.9557 16.896 5.99506 15.4505 4.54947C14.0049 3.10387 12.0442 2.29175 9.99984 2.29175ZM1.0415 10.0001C1.0415 5.05258 5.05234 1.04175 9.99984 1.04175C14.9473 1.04175 18.9582 5.05258 18.9582 10.0001C18.9582 14.9476 14.9473 18.9584 9.99984 18.9584C5.05234 18.9584 1.0415 14.9476 1.0415 10.0001ZM6.99734 12.9609C7.04627 12.8949 7.10774 12.8392 7.17821 12.797C7.24869 12.7548 7.32679 12.7269 7.40806 12.7149C7.48933 12.7029 7.57216 12.7071 7.65183 12.7271C7.73149 12.7472 7.80642 12.7827 7.87234 12.8317C8.479 13.2817 9.2115 13.5417 9.99984 13.5417C10.7882 13.5417 11.5207 13.2809 12.1273 12.8317C12.193 12.7806 12.2683 12.7431 12.3487 12.7215C12.4291 12.6998 12.513 12.6945 12.5955 12.7057C12.678 12.717 12.7575 12.7446 12.8291 12.7869C12.9008 12.8293 12.9633 12.8856 13.013 12.9524C13.0626 13.0193 13.0984 13.0953 13.1182 13.1762C13.138 13.2571 13.1415 13.3411 13.1284 13.4233C13.1153 13.5056 13.0859 13.5843 13.0419 13.655C12.9979 13.7258 12.9403 13.787 12.8723 13.8351C12.0429 14.4552 11.0354 14.7907 9.99984 14.7917C8.96426 14.7907 7.95673 14.4552 7.12734 13.8351C6.99419 13.7364 6.9057 13.5889 6.88132 13.4249C6.85694 13.261 6.89867 13.0941 6.99734 12.9609Z" fill="#9DA1B4"/>
<path id="Vector_2" d="M13.3332 8.75C13.3332 9.44 12.9598 10 12.4998 10C12.0398 10 11.6665 9.44 11.6665 8.75C11.6665 8.06 12.0398 7.5 12.4998 7.5C12.9598 7.5 13.3332 8.06 13.3332 8.75ZM8.33317 8.75C8.33317 9.44 7.95984 10 7.49984 10C7.03984 10 6.6665 9.44 6.6665 8.75C6.6665 8.06 7.03984 7.5 7.49984 7.5C7.95984 7.5 8.33317 8.06 8.33317 8.75Z" fill="#9DA1B4"/>
</g>
</g>
</svg>
