<svg width="15" height="14" viewBox="0 0 15 14" fill="none" xmlns="http://www.w3.org/2000/svg">
<g id="Icon/information">
<path id="Vector" d="M7.18411 4.25252C7.30078 4.14752 7.44078 4.08335 7.59245 4.08335C7.74995 4.08335 7.88411 4.14752 8.00661 4.25252C8.11745 4.37502 8.17578 4.51502 8.17578 4.66669C8.17578 4.82419 8.11745 4.95835 8.00661 5.08085C7.88411 5.19169 7.74995 5.25002 7.59245 5.25002C7.44078 5.25002 7.30078 5.19169 7.18411 5.08085C7.07328 4.95835 7.00911 4.82419 7.00911 4.66669C7.00911 4.51502 7.07328 4.37502 7.18411 4.25252ZM5.72578 6.98252C5.72578 6.98252 6.99161 5.97919 7.45245 5.93835C7.88411 5.90335 7.79661 6.39919 7.75578 6.65585L7.74995 6.69085C7.66828 7.00002 7.56911 7.37335 7.46995 7.72919C7.24828 8.54002 7.03245 9.33335 7.08495 9.47919C7.14328 9.67752 7.50495 9.42669 7.76745 9.25169C7.80245 9.22835 7.83161 9.20502 7.86078 9.18752C7.86078 9.18752 7.90745 9.14085 7.95411 9.20502C7.96578 9.22252 7.97745 9.24002 7.98911 9.25169C8.04161 9.33335 8.07078 9.36252 8.00078 9.40919L7.97745 9.42085C7.84911 9.50835 7.30078 9.89335 7.07911 10.0334C6.83995 10.1909 5.92411 10.7159 6.06411 9.69502C6.18661 8.97752 6.34995 8.35919 6.47828 7.87502C6.71745 7.00002 6.82245 6.60335 6.28578 6.94752C6.06995 7.07585 5.94161 7.15752 5.86578 7.21002C5.80161 7.25669 5.79578 7.25669 5.75495 7.18085L5.73745 7.14585L5.70828 7.09919C5.66745 7.04085 5.66745 7.03502 5.72578 6.98252ZM12.8424 7.00002C12.8424 10.2084 10.2174 12.8334 7.00911 12.8334C3.80078 12.8334 1.17578 10.2084 1.17578 7.00002C1.17578 3.79169 3.80078 1.16669 7.00911 1.16669C10.2174 1.16669 12.8424 3.79169 12.8424 7.00002ZM11.6758 7.00002C11.6758 4.42169 9.58745 2.33335 7.00911 2.33335C4.43078 2.33335 2.34245 4.42169 2.34245 7.00002C2.34245 9.57835 4.43078 11.6667 7.00911 11.6667C9.58745 11.6667 11.6758 9.57835 11.6758 7.00002Z" fill="black"/>
</g>
</svg>
