<svg width="30" height="30" viewBox="0 0 30 30" fill="none" xmlns="http://www.w3.org/2000/svg">
<g id="Icon/alramBell">
<path id="Vector" d="M25.9918 20.618C25.3414 19.4977 24.3746 16.3277 24.3746 12.1875C24.3746 9.7011 23.3869 7.31653 21.6287 5.55837C19.8706 3.80022 17.486 2.8125 14.9996 2.8125C12.5132 2.8125 10.1286 3.80022 8.37049 5.55837C6.61234 7.31653 5.62462 9.7011 5.62462 12.1875C5.62462 16.3289 4.65665 19.4977 4.00626 20.618C3.84017 20.9028 3.75212 21.2264 3.75099 21.5561C3.74986 21.8858 3.83568 22.2099 3.99981 22.4959C4.16394 22.7818 4.40057 23.0195 4.68584 23.1848C4.9711 23.3501 5.29491 23.4373 5.62462 23.4375H10.407C10.6233 24.4959 11.1986 25.4471 12.0354 26.1302C12.8722 26.8133 13.9194 27.1864 14.9996 27.1864C16.0799 27.1864 17.127 26.8133 17.9638 26.1302C18.8007 25.4471 19.3759 24.4959 19.5922 23.4375H24.3746C24.7042 23.4371 25.0279 23.3497 25.313 23.1843C25.5981 23.0189 25.8346 22.7813 25.9985 22.4954C26.1625 22.2095 26.2483 21.8854 26.2471 21.5558C26.2459 21.2262 26.1578 20.9027 25.9918 20.618ZM14.9996 25.3125C14.4182 25.3123 13.851 25.1319 13.3763 24.7961C12.9016 24.4604 12.5427 23.9857 12.3488 23.4375H17.6504C17.4566 23.9857 17.0976 24.4604 16.6229 24.7961C16.1482 25.1319 15.5811 25.3123 14.9996 25.3125ZM5.62462 21.5625C6.52696 20.0109 7.49962 16.4156 7.49962 12.1875C7.49962 10.1984 8.28979 8.29072 9.69632 6.8842C11.1028 5.47768 13.0105 4.6875 14.9996 4.6875C16.9887 4.6875 18.8964 5.47768 20.3029 6.8842C21.7094 8.29072 22.4996 10.1984 22.4996 12.1875C22.4996 16.4121 23.4699 20.0074 24.3746 21.5625H5.62462Z" fill="black"/>
</g>
</svg>
