<svg width="85" height="31" viewBox="0 0 85 31" fill="none" xmlns="http://www.w3.org/2000/svg">
<g clip-path="url(#clip0_6_95)">
<path d="M0 0H17.2752L19.9727 5.10736H6.13177V12.2079H16.9038L18.4382 14.7823L16.9038 17.3568H6.13177V25.5783H19.9727L17.7309 30.7273H0V0Z" fill="#699AFE"/>
<path d="M36.1446 30.7273C34.3246 30.7273 32.7053 30.4692 31.2866 29.9529C29.8681 29.4097 28.6502 28.5675 27.6332 27.4264C26.6428 26.2853 25.8799 24.8181 25.3446 23.025C24.8361 21.2319 24.5818 19.0856 24.5818 16.5863V0L30.5238 2.2338V17.116C30.5238 18.6917 30.6443 20.023 30.8852 21.1098C31.1528 22.1693 31.5275 23.025 32.0093 23.6771C32.4911 24.3291 33.08 24.8046 33.7758 25.1034C34.4718 25.3752 35.2614 25.511 36.1446 25.511C37.0279 25.511 37.8176 25.3752 38.5134 25.1034C39.2361 24.8046 39.8517 24.3291 40.3602 23.6771C40.8688 23.025 41.257 22.1693 41.5247 21.1098C41.7923 20.023 41.9261 18.6917 41.9261 17.116V2.2338L47.6272 0V16.5863C47.6272 19.0856 47.373 21.2319 46.8644 23.025C46.3559 24.8181 45.6065 26.2853 44.6161 27.4264C43.6258 28.5675 42.4213 29.4097 41.0027 29.9529C39.5841 30.4692 37.9647 30.7273 36.1446 30.7273Z" fill="#373E6A"/>
<path d="M50.7 0L56.8454 1.5379V29.1894L50.7 30.7273V0Z" fill="#373E6A"/>
<path d="M59.9182 1.5379L64.0366 0H68.6882C71.1363 0 73.3251 0.304504 75.2548 0.913513C77.2134 1.52252 78.8694 2.46371 80.2231 3.7371C81.6055 4.9828 82.6567 6.56069 83.3768 8.47076C84.1256 10.3808 84.5 12.6369 84.5 15.2391C84.5 17.8135 84.1256 20.0697 83.3768 22.0073C82.6567 23.9451 81.62 25.5645 80.2663 26.8656C78.9415 28.139 77.3286 29.1078 75.4276 29.7723C73.5267 30.4089 71.3955 30.7273 69.0338 30.7273H64.476L59.9182 29.1894V1.5379ZM68.2994 25.786C69.797 25.786 71.1363 25.5923 72.3171 25.2047C73.5267 24.7894 74.5492 24.1665 75.3845 23.3361C76.2196 22.4779 76.8532 21.3845 77.2853 20.0558C77.7462 18.727 77.9766 17.1214 77.9766 15.2391C77.9766 13.3567 77.7462 11.7649 77.2853 10.4639C76.8532 9.13514 76.2196 8.06937 75.3845 7.26659C74.5492 6.43612 73.5267 5.84095 72.3171 5.48108C71.1363 5.09352 69.797 4.89976 68.2994 4.89976H66.3121V25.786H68.2994Z" fill="#373E6A"/>
</g>
<defs>
<clipPath id="clip0_6_95">
<rect width="84.5" height="30.7273" fill="white"/>
</clipPath>
</defs>
</svg>
