<svg width="20" height="21" viewBox="0 0 20 21" fill="none" xmlns="http://www.w3.org/2000/svg">
<g id="Icon/more">
<path id="Vector" d="M9.99967 6.92965C10.9163 6.92965 11.6663 6.17965 11.6663 5.26298C11.6663 4.34631 10.9163 3.59631 9.99967 3.59631C9.08301 3.59631 8.33301 4.34631 8.33301 5.26298C8.33301 6.17965 9.08301 6.92965 9.99967 6.92965ZM9.99967 8.59631C9.08301 8.59631 8.33301 9.34631 8.33301 10.263C8.33301 11.1796 9.08301 11.9296 9.99967 11.9296C10.9163 11.9296 11.6663 11.1796 11.6663 10.263C11.6663 9.34631 10.9163 8.59631 9.99967 8.59631ZM9.99967 13.5963C9.08301 13.5963 8.33301 14.3463 8.33301 15.263C8.33301 16.1796 9.08301 16.9296 9.99967 16.9296C10.9163 16.9296 11.6663 16.1796 11.6663 15.263C11.6663 14.3463 10.9163 13.5963 9.99967 13.5963Z" fill="#919191"/>
</g>
</svg>
