<svg width="22" height="22" viewBox="0 0 22 22" fill="none" xmlns="http://www.w3.org/2000/svg">
<g id="Icon/call">
<path id="Vector" d="M13.2516 3.30436C13.269 3.23889 13.2992 3.17749 13.3404 3.12369C13.3816 3.06989 13.433 3.02474 13.4917 2.99082C13.5503 2.9569 13.6151 2.93488 13.6823 2.92601C13.7495 2.91714 13.8178 2.9216 13.8832 2.93913C15.1286 3.26399 16.2649 3.915 17.175 4.8251C18.0851 5.73519 18.7361 6.87147 19.0609 8.11686C19.0785 8.18232 19.0829 8.25059 19.0741 8.31777C19.0652 8.38495 19.0432 8.44973 19.0093 8.50839C18.9753 8.56705 18.9302 8.61846 18.8764 8.65966C18.8226 8.70086 18.7612 8.73105 18.6957 8.74851C18.6523 8.76008 18.6075 8.76586 18.5625 8.76569C18.4489 8.76576 18.3385 8.72831 18.2483 8.65916C18.1582 8.59 18.0934 8.49302 18.0641 8.38327C17.7852 7.31351 17.226 6.33747 16.4443 5.55575C15.6626 4.77403 14.6866 4.21491 13.6168 3.93601C13.5513 3.91855 13.4899 3.88836 13.4361 3.84716C13.3823 3.80596 13.3372 3.75455 13.3033 3.69589C13.2693 3.63723 13.2473 3.57245 13.2384 3.50527C13.2296 3.43809 13.234 3.36982 13.2516 3.30436ZM12.9293 6.68601C14.1797 7.01944 14.9806 7.82038 15.3141 9.07077C15.3434 9.18052 15.4082 9.2775 15.4983 9.34666C15.5885 9.41581 15.6989 9.45326 15.8125 9.45319C15.8575 9.45336 15.9023 9.44758 15.9457 9.43601C16.0112 9.41855 16.0726 9.38836 16.1264 9.34716C16.1802 9.30596 16.2253 9.25455 16.2593 9.19589C16.2932 9.13723 16.3152 9.07245 16.3241 9.00527C16.3329 8.93809 16.3285 8.86982 16.3109 8.80436C15.8813 7.19647 14.8036 6.11882 13.1957 5.68913C13.1303 5.67164 13.062 5.66721 12.9948 5.6761C12.9277 5.68498 12.8629 5.70702 12.8042 5.74093C12.6858 5.80943 12.5994 5.92217 12.5641 6.05436C12.5287 6.18656 12.5474 6.32737 12.6159 6.44583C12.6844 6.56428 12.7971 6.65068 12.9293 6.68601ZM19.7562 15.0219C19.6089 16.1453 19.0576 17.1767 18.2053 17.9232C17.353 18.6697 16.258 19.0803 15.125 19.0782C8.3961 19.0782 2.92188 13.604 2.92188 6.87507C2.91971 5.74245 3.32993 4.64777 4.07591 3.79551C4.8219 2.94326 5.85262 2.39171 6.97555 2.2439C7.23405 2.21248 7.49577 2.26578 7.72139 2.39579C7.94701 2.52581 8.12436 2.72551 8.22681 2.96491L10.0401 7.01257C10.1201 7.19581 10.1533 7.39612 10.1365 7.59538C10.1197 7.79464 10.0535 7.98657 9.94384 8.15382C9.93278 8.17084 9.92073 8.1872 9.90774 8.2028L8.09704 10.3564C8.08605 10.3787 8.08033 10.4033 8.08033 10.4282C8.08033 10.453 8.08605 10.4776 8.09704 10.4999C8.75532 11.8474 10.1681 13.2499 11.5345 13.9073C11.5574 13.9177 11.5823 13.9227 11.6073 13.9218C11.6324 13.9209 11.6569 13.9142 11.6789 13.9022L13.8007 12.0975C13.8159 12.0843 13.8319 12.0722 13.8488 12.0614C14.0153 11.9504 14.2069 11.8827 14.4062 11.8644C14.6055 11.846 14.8061 11.8777 14.9901 11.9566L19.0498 13.7759C19.286 13.8805 19.4822 14.0585 19.6095 14.2834C19.7367 14.5083 19.7881 14.7681 19.7562 15.0245V15.0219ZM18.7344 14.8948C18.7373 14.8588 18.7288 14.8229 18.7101 14.792C18.6915 14.7612 18.6636 14.737 18.6304 14.7229L14.5699 12.9036C14.5477 12.895 14.5239 12.8914 14.5002 12.8928C14.4764 12.8943 14.4533 12.9009 14.4324 12.9122L12.3114 14.7169C12.2959 14.7298 12.2796 14.7418 12.2633 14.753C12.0903 14.8683 11.8903 14.9369 11.6829 14.9519C11.4755 14.967 11.2678 14.9281 11.0799 14.8389C9.50212 14.0766 7.92946 12.5186 7.1672 10.9554C7.07754 10.7686 7.03763 10.5619 7.05133 10.3551C7.06503 10.1484 7.13188 9.94876 7.2454 9.77546C7.25646 9.75822 7.26882 9.74185 7.28235 9.72647L9.0922 7.57288C9.10254 7.55037 9.10789 7.52589 9.10789 7.50112C9.10789 7.47635 9.10254 7.45187 9.0922 7.42936L7.28235 3.37827C7.27041 3.34576 7.24892 3.31761 7.2207 3.29752C7.19249 3.27743 7.15886 3.26634 7.12423 3.26569H7.10446C6.23043 3.38196 5.42859 3.81238 4.84868 4.47658C4.26878 5.14077 3.95044 5.99334 3.95313 6.87507C3.95313 13.0351 8.96501 18.0469 15.125 18.0469C16.0069 18.0496 16.8595 17.7312 17.5238 17.1511C18.188 16.571 18.6183 15.7689 18.7344 14.8948Z" fill="black"/>
</g>
</svg>
